<?xml version="1.0" encoding="UTF-8" standalone="no"?>
<svg
   width="15mm"
   height="15mm"
   viewBox="0 0 192.17257 192.17256"
   version="1.1"
   id="svg1"
   xml:space="preserve"
   inkscape:version="1.3.2 (091e20e, 2023-11-25, custom)"
   sodipodi:docname="LogoImg.svg"
   xmlns:inkscape="http://www.inkscape.org/namespaces/inkscape"
   xmlns:sodipodi="http://sodipodi.sourceforge.net/DTD/sodipodi-0.dtd"
   xmlns="http://www.w3.org/2000/svg"
   xmlns:svg="http://www.w3.org/2000/svg"><sodipodi:namedview
     id="namedview1"
     pagecolor="#ffffff"
     bordercolor="#000000"
     borderopacity="0.25"
     inkscape:showpageshadow="2"
     inkscape:pageopacity="0.0"
     inkscape:pagecheckerboard="0"
     inkscape:deskcolor="#d1d1d1"
     inkscape:document-units="mm"
     inkscape:zoom="4.5101178"
     inkscape:cx="89.465512"
     inkscape:cy="85.474486"
     inkscape:window-width="2560"
     inkscape:window-height="1334"
     inkscape:window-x="-11"
     inkscape:window-y="-11"
     inkscape:window-maximized="1"
     inkscape:current-layer="layer1" /><defs
     id="defs1" /><g
     inkscape:label="Layer 1"
     inkscape:groupmode="layer"
     id="layer1"
     transform="translate(-6.1050188,-26.885511)"><rect
       style="display:none;fill:#ffffff;stroke:#0af142;stroke-width:0.208779"
       id="rect1"
       width="191.96378"
       height="191.96378"
       x="6.2094083"
       y="26.989901" /><g
       id="g17"
       style="display:inline"
       transform="matrix(1.3986978,0,0,1.3986978,-38.434937,-47.223389)"><path
         id="path12"
         style="display:inline;fill:#e48349;fill-opacity:1;stroke:none;stroke-width:0.269453"
         d="m 149.53583,68.071753 -17.13591,21.297408 -5.31027,18.442289 a 31.075817,29.454344 0 0 0 -11.77602,-5.48701 l 1.20096,-18.369419 c 0.004,-0.05616 -0.0389,-0.104483 -0.0951,-0.108004 l -15.71274,-0.984952 c -0.0562,-0.0035 -0.10433,0.03892 -0.108,0.09508 l -1.295527,19.818435 a 31.075817,29.454344 0 0 0 -19.249468,15.48174 l -15.074015,-18.04076 -0.534335,1.02009 -12.391491,-2.429309 -10.739397,12.780099 -3.499011,-1.94355 -5.831168,6.31693 18.368387,16.86202 4.713925,-4.3248 -1.846399,-2.08928 0.194303,-1.70067 4.470528,-4.7625 20.181714,3.45043 a 31.075817,29.454344 0 0 0 -1.090373,7.56492 31.075817,29.454344 0 0 0 16.828947,26.0196 l -0.727604,10.90889 9.702244,1.07797 0.85111,13.3904 9.75858,-0.22738 0.51108,-9.98543 1.19631,-3.59513 5.15783,0.64492 c 0,0 1.47527,-0.7946 1.70222,-4.53926 0.17689,-2.91891 -0.19461,-4.13731 -0.36846,-4.53771 -0.0492,-0.11326 -0.0853,-0.17156 -0.0853,-0.17156 0,0 0.0764,1.4e-4 0.2005,0.0289 0.43685,0.10152 1.5754,0.62356 3.03341,3.31866 1.87233,3.4609 5.44694,4.76573 6.63835,5.10615 1.19148,0.34043 1.81579,-2.3258 1.47537,-3.06338 -0.34042,-0.73759 0.86225,-0.34334 1.87223,1.92908 0.4539,1.02127 0.9074,-0.5675 0.34003,-1.98593 -0.56738,-1.41843 -3.85799,-6.41156 -11.4608,-5.90093 -0.57355,0.0385 -0.72467,-0.0232 -1.15135,-0.49041 -0.3709,-0.47611 -0.53686,-1.00672 -0.55242,-1.572 a 31.075817,29.454344 0 0 0 17.22944,-26.35549 31.075817,29.454344 0 0 0 -4.07417,-14.50816 l 21.21369,-10.37611 12.30106,-19.950726 V 85.94198 l -14.74897,0.550871 z M 58.881414,105.80485 a 5.0780869,5.1509781 0 0 1 5.077726,5.15111 5.0780869,5.1509781 0 0 1 -5.077726,5.15059 5.0780869,5.1509781 0 0 1 -5.078243,-5.15059 5.0780869,5.1509781 0 0 1 5.078243,-5.15111 z m 49.082786,0.77721 a 6.0006218,5.7731104 0 0 1 6.00067,5.77278 6.0006218,5.7731104 0 0 1 -6.00067,5.77329 6.0006218,5.7731104 0 0 1 -6.00066,-5.77329 6.0006218,5.7731104 0 0 1 6.00066,-5.77278 z m -62.567751,9.76737 a 2.1381419,2.2110331 0 0 1 2.137854,2.21123 2.1381419,2.2110331 0 0 1 -2.137854,2.21124 2.1381419,2.2110331 0 0 1 -2.138371,-2.21124 2.1381419,2.2110331 0 0 1 2.138371,-2.21123 z m 73.260641,9.57099 a 9.3564196,9.1573477 0 0 1 9.35654,9.15706 9.3564196,9.1573477 0 0 1 -9.35654,9.15758 9.3564196,9.1573477 0 0 1 -9.35653,-9.15758 9.3564196,9.1573477 0 0 1 9.35653,-9.15706 z m -22.466847,1.53582 a 7.7069597,7.5078874 0 0 1 7.707027,7.50755 7.7069597,7.5078874 0 0 1 -7.707027,7.50807 7.7069597,7.5078874 0 0 1 -7.707018,-7.50807 7.7069597,7.5078874 0 0 1 7.707018,-7.50755 z" /><path
         id="path2"
         style="display:none;fill:#5d2602;fill-opacity:1;stroke:none;stroke-width:0.269453"
         d="m 153.36532,63.585783 -17.13591,21.297408 -5.31027,18.442289 a 31.075817,29.454344 0 0 0 -11.77602,-5.487008 l 1.20096,-18.369421 c 0.004,-0.05616 -0.0389,-0.104483 -0.0951,-0.108004 l -15.71274,-0.984952 c -0.0562,-0.0035 -0.10433,0.03892 -0.108,0.09508 l -1.29553,19.818429 A 31.075817,29.454344 0 0 0 83.883252,113.77135 L 68.809237,95.730591 68.274902,96.750684 55.883411,94.321375 45.144014,107.10147 l -3.499011,-1.94355 -5.831168,6.31693 18.368387,16.86202 4.713925,-4.3248 -1.846399,-2.08928 0.194303,-1.70067 4.470528,-4.7625 20.181714,3.45043 a 31.075817,29.454344 0 0 0 -1.090373,7.56492 31.075817,29.454344 0 0 0 16.828947,26.0196 l -0.727604,10.90889 9.702247,1.07797 0.85111,13.3904 9.75858,-0.22738 0.51108,-9.98543 1.19631,-3.59513 5.15783,0.64492 c 0,0 1.47527,-0.7946 1.70222,-4.53926 0.17689,-2.91891 -0.19461,-4.13731 -0.36846,-4.53771 -0.0492,-0.11326 -0.0853,-0.17156 -0.0853,-0.17156 0,0 0.0764,1.4e-4 0.2005,0.0289 0.43685,0.10152 1.5754,0.62356 3.03341,3.31866 1.87233,3.4609 5.44694,4.76573 6.63835,5.10615 1.19148,0.34043 1.81579,-2.3258 1.47537,-3.06338 -0.34042,-0.73759 0.86225,-0.34334 1.87223,1.92908 0.4539,1.02127 0.9074,-0.5675 0.34003,-1.98593 -0.56738,-1.41843 -3.85799,-6.41156 -11.4608,-5.90093 -0.57355,0.0385 -0.72467,-0.0232 -1.15135,-0.49041 -0.3709,-0.47611 -0.53686,-1.00672 -0.55242,-1.572 a 31.075817,29.454344 0 0 0 17.22944,-26.35549 31.075817,29.454344 0 0 0 -4.07417,-14.50816 L 160.0972,101.5907 172.39826,81.639978 V 81.45601 l -14.74897,0.550871 z M 62.710901,101.31888 a 5.0780869,5.1509781 0 0 1 5.077726,5.15111 5.0780869,5.1509781 0 0 1 -5.077726,5.15059 5.0780869,5.1509781 0 0 1 -5.078243,-5.15059 5.0780869,5.1509781 0 0 1 5.078243,-5.15111 z m 49.082789,0.77721 a 6.0006218,5.7731104 0 0 1 6.00067,5.77278 6.0006218,5.7731104 0 0 1 -6.00067,5.77329 6.0006218,5.7731104 0 0 1 -6.00066,-5.77329 6.0006218,5.7731104 0 0 1 6.00066,-5.77278 z m -62.567754,9.76737 a 2.1381419,2.2110331 0 0 1 2.137854,2.21123 2.1381419,2.2110331 0 0 1 -2.137854,2.21124 2.1381419,2.2110331 0 0 1 -2.138371,-2.21124 2.1381419,2.2110331 0 0 1 2.138371,-2.21123 z m 73.260644,9.57099 a 9.3564196,9.1573477 0 0 1 9.35654,9.15706 9.3564196,9.1573477 0 0 1 -9.35654,9.15758 9.3564196,9.1573477 0 0 1 -9.35653,-9.15758 9.3564196,9.1573477 0 0 1 9.35653,-9.15706 z m -22.46685,1.53582 a 7.7069597,7.5078874 0 0 1 7.70703,7.50755 7.7069597,7.5078874 0 0 1 -7.70703,7.50807 7.7069597,7.5078874 0 0 1 -7.707018,-7.50807 7.7069597,7.5078874 0 0 1 7.707018,-7.50755 z" /></g></g></svg>
